<svg width="21" height="21" viewBox="0 0 21 21" fill="none" xmlns="http://www.w3.org/2000/svg">
<g id="Shopping cart">
<path id="Icon" d="M0.875 0.875H4.375L6.72 12.5913C6.80001 12.9941 7.01917 13.356 7.3391 13.6135C7.65904 13.8711 8.05936 14.0079 8.47 14H16.975C17.3856 14.0079 17.786 13.8711 18.1059 13.6135C18.4258 13.356 18.645 12.9941 18.725 12.5913L20.125 5.25H5.25M8.75 18.375C8.75 18.8582 8.35825 19.25 7.875 19.25C7.39175 19.25 7 18.8582 7 18.375C7 17.8918 7.39175 17.5 7.875 17.5C8.35825 17.5 8.75 17.8918 8.75 18.375ZM18.375 18.375C18.375 18.8582 17.9832 19.25 17.5 19.25C17.0168 19.25 16.625 18.8582 16.625 18.375C16.625 17.8918 17.0168 17.5 17.5 17.5C17.9832 17.5 18.375 17.8918 18.375 18.375Z" stroke="#1A1E22" stroke-width="1.47368" stroke-linecap="round" stroke-linejoin="round"/>
</g>
</svg>
